<svg width="17" height="17" viewBox="0 0 17 17" fill="none" xmlns="http://www.w3.org/2000/svg">
<path d="M7.16659 3.16664H2.99992C2.55789 3.16664 2.13397 3.34223 1.82141 3.65479C1.50885 3.96736 1.33325 4.39128 1.33325 4.83331V14C1.33325 14.442 1.50885 14.8659 1.82141 15.1785C2.13397 15.491 2.55789 15.6666 2.99992 15.6666H12.1666C12.6086 15.6666 13.0325 15.491 13.3451 15.1785C13.6577 14.8659 13.8333 14.442 13.8333 14V9.83331M12.6549 1.98831C12.8087 1.82912 12.9926 1.70215 13.1959 1.6148C13.3993 1.52746 13.618 1.48148 13.8393 1.47956C14.0605 1.47763 14.28 1.5198 14.4848 1.6036C14.6897 1.6874 14.8758 1.81116 15.0322 1.96765C15.1887 2.12414 15.3125 2.31022 15.3963 2.51505C15.4801 2.71988 15.5223 2.93934 15.5203 3.16064C15.5184 3.38194 15.4724 3.60064 15.3851 3.80398C15.2977 4.00732 15.1708 4.19123 15.0116 4.34497L7.85659 11.5H5.49992V9.14331L12.6549 1.98831Z" stroke="black" stroke-width="1.5" stroke-linecap="round" stroke-linejoin="round"/>
</svg>
