<svg width="20" height="20" viewBox="0 0 20 20" fill="none" xmlns="http://www.w3.org/2000/svg">
<path d="M9.20758 2.43939C9.45758 1.67189 10.5434 1.67189 10.7926 2.43939L12.0584 6.33439C12.1129 6.50147 12.2188 6.64704 12.361 6.75031C12.5032 6.85359 12.6743 6.90927 12.8501 6.90939H16.9459C17.7534 6.90939 18.0884 7.94273 17.4359 8.41773L14.1226 10.8244C13.9803 10.9279 13.8743 11.0737 13.82 11.2411C13.7656 11.4085 13.7657 11.5887 13.8201 11.7561L15.0851 15.6511C15.3351 16.4194 14.4559 17.0577 13.8034 16.5827L10.4901 14.1761C10.3477 14.0725 10.1761 14.0168 10.0001 14.0168C9.82402 14.0168 9.65249 14.0725 9.51008 14.1761L6.19675 16.5827C5.54425 17.0577 4.66508 16.4186 4.91508 15.6511L6.18008 11.7561C6.23448 11.5887 6.23451 11.4085 6.18017 11.2411C6.12583 11.0737 6.01991 10.9279 5.87758 10.8244L2.56425 8.41773C1.91091 7.94273 2.24758 6.90939 3.05425 6.90939H7.14925C7.32512 6.90944 7.4965 6.85384 7.63885 6.75056C7.7812 6.64728 7.88723 6.5016 7.94175 6.33439L9.20758 2.43939V2.43939Z" stroke="#979797" stroke-width="1.2" stroke-linecap="round" stroke-linejoin="round"/>
</svg>
