<svg width="40" height="40" viewBox="0 0 40 40" fill="none" xmlns="http://www.w3.org/2000/svg">
<circle cx="20" cy="20" r="16" fill="#00609A"/>
<mask id="mask0_1130_7723" style="mask-type:alpha" maskUnits="userSpaceOnUse" x="5" y="5" width="30" height="30">
<circle cx="20" cy="20" r="15" fill="#000099"/>
</mask>
<g mask="url(#mask0_1130_7723)">
<path d="M20 25.3571C15.4448 25.3501 10.9656 26.5488 7 28.8363C8.57937 30.448 11.4277 32.8065 13.4912 33.6788C15.5548 34.551 17.7664 35 20 35C22.2336 35 24.4452 34.551 26.5088 33.6788C28.5723 32.8065 31.4206 30.448 33 28.8363C29.1599 26.6204 24.7245 25.3571 20 25.3571Z" fill="white"/>
<path d="M24.0089 18.8768C25.0721 17.7918 25.6694 16.3202 25.6694 14.7857C25.6694 13.2512 25.0721 11.7796 24.0089 10.6946C22.9457 9.60956 21.5036 9 20 9C18.4964 9 17.0543 9.60956 15.9911 10.6946C14.9279 11.7796 14.3306 13.2512 14.3306 14.7857C14.3306 16.3202 14.9279 17.7918 15.9911 18.8768C17.0543 19.9619 18.4964 20.5714 20 20.5714C21.5036 20.5714 22.9457 19.9619 24.0089 18.8768Z" fill="white"/>
<path d="M20 25.3571C15.4448 25.3501 10.9656 26.5488 7 28.8363C8.57937 30.448 11.4277 32.8065 13.4912 33.6788C15.5548 34.551 17.7664 35 20 35C22.2336 35 24.4452 34.551 26.5088 33.6788C28.5723 32.8065 31.4206 30.448 33 28.8363C29.1599 26.6204 24.7245 25.3571 20 25.3571Z" stroke="white" stroke-width="2" stroke-linecap="round" stroke-linejoin="round"/>
<path d="M24.0089 18.8768C25.0721 17.7918 25.6694 16.3202 25.6694 14.7857C25.6694 13.2512 25.0721 11.7796 24.0089 10.6946C22.9457 9.60956 21.5036 9 20 9C18.4964 9 17.0543 9.60956 15.9911 10.6946C14.9279 11.7796 14.3306 13.2512 14.3306 14.7857C14.3306 16.3202 14.9279 17.7918 15.9911 18.8768C17.0543 19.9619 18.4964 20.5714 20 20.5714C21.5036 20.5714 22.9457 19.9619 24.0089 18.8768Z" stroke="white" stroke-width="2" stroke-linecap="round" stroke-linejoin="round"/>
</g>
</svg>
